<svg width="142" height="21" viewBox="0 0 142 21" fill="none" xmlns="http://www.w3.org/2000/svg">
<g id="image 5 (Traced)">
<path fill-rule="evenodd" clip-rule="evenodd" d="M66.9175 1.60037C64.38 2.35799 61.8258 4.45474 60.6069 6.78077C59.708 8.4963 59.6132 12.4305 60.42 14.5584C62.5061 20.0631 69.5983 22.4755 74.9571 19.5025C77.64 18.0141 77.9271 17.4911 76.8525 16.0484C76.1906 15.1597 75.9175 15.1018 75.095 15.6779C71.17 18.4254 67.7066 18.3669 64.8293 15.5034C63.3184 14 63.0787 13.3916 63.0787 11.0639C63.0787 8.95001 63.3782 8.01143 64.4646 6.72492C66.7893 3.97095 70.8479 3.51938 74.2483 5.63601C75.1817 6.21698 75.5286 6.21698 76.2315 5.63548C77.5889 4.51273 77.2334 3.54839 75.0632 2.46538C72.2343 1.05322 69.6635 0.780461 66.9175 1.60037ZM129.769 0.967015C124.3 2.19661 120.686 7.10371 121.722 11.8911C123.135 18.4214 128.595 21.847 134.706 20.0381C141.854 17.9214 144.321 9.30786 139.295 4.01255C136.766 1.34824 133.176 0.200263 129.769 0.967015ZM0.059021 10.9523V20.6338H7.33052H14.602V19.023V17.4122H8.94641H3.2908V15.0207V12.6286L6.92655 12.4702C10.447 12.3161 10.5677 12.2645 10.7325 10.8347L10.9033 9.35809H7.09676H3.2908V6.94185V4.52562H8.44333H13.5964L13.4257 3.04904L13.2555 1.57245L6.65723 1.42156L0.059021 1.27069V10.9523ZM17.1966 1.56868C16.651 2.13086 17.8914 4.52562 18.7285 4.52562C19.2989 4.52562 19.4497 6.20732 19.4497 12.5797V20.6338H23.7237C28.4023 20.6338 30.3693 20.1017 32.2933 18.3159C34.3078 16.4462 35.238 14.146 35.2838 10.92C35.3183 8.50381 35.0393 7.48524 33.8537 5.69991C31.6895 2.43906 29.842 1.69594 23.2201 1.42264C20.1095 1.29431 17.3991 1.36035 17.1966 1.56868ZM39.0504 2.06965C38.8727 2.53196 38.8221 5.75038 38.9384 9.2217C39.1781 16.3802 39.9128 18.4361 42.7546 19.9047C45.0874 21.1101 49.9227 21.1128 52.1951 19.91C55.5487 18.1349 56.1077 16.4419 55.9483 8.55267L55.8072 1.57245H54.4606H53.1141L52.8447 8.55267C52.6966 12.3918 52.3901 15.8175 52.1639 16.1649C51.4949 17.1926 48.0649 18.0812 46.1507 17.7236C42.8731 17.1104 42.3732 15.9635 42.0721 8.36474C41.8125 1.81889 41.7587 1.566 40.5888 1.40062C39.8611 1.29753 39.2443 1.566 39.0504 2.06965ZM86.5538 2.74728C86.7843 3.90707 85.971 6.03765 83.0457 11.9343C80.9515 16.1568 79.2376 19.8418 79.2376 20.1227C79.2376 21.1922 82.3342 20.6397 83.1427 19.4257C83.8607 18.347 84.4731 18.1977 88.8511 18.0302C93.6869 17.846 93.7639 17.8627 94.393 19.2383C94.8616 20.2639 95.4358 20.6338 96.5605 20.6338C97.4013 20.6338 98.0896 20.4169 98.0896 20.1517C98.0896 19.8864 96.178 15.5979 93.842 10.621C89.7791 1.96602 89.5222 1.56493 87.9241 1.40492C86.3534 1.24706 86.271 1.32761 86.5538 2.74728ZM136.363 5.61961C138.362 7.11714 138.912 8.71078 138.498 11.7971C137.957 15.8129 133.713 18.3789 129.76 17.0785C127.274 16.2602 124.652 13.1937 124.652 11.1028C124.652 4.94198 131.3 1.82935 136.363 5.61961ZM30.3575 6.56009C32.4091 8.6053 32.8233 11.6132 31.4083 14.1906C30.1129 16.5509 28.4944 17.3945 25.24 17.4041L22.6815 17.4122V10.8937V4.37528L25.7393 4.68992C28.1496 4.93799 29.1273 5.33372 30.3575 6.56009ZM90.5763 11.0231C91.4887 12.8251 92.1588 14.3667 92.0651 14.4488C91.9719 14.5315 90.4152 14.7012 88.6065 14.8263L85.3176 15.0534L86.9362 11.4001C87.8266 9.39137 88.6361 7.74727 88.7358 7.74727C88.836 7.74727 89.6639 9.2217 90.5763 11.0231Z" fill="#383838"/>
<path fill-rule="evenodd" clip-rule="evenodd" d="M99.7605 1.34016C99.2149 1.90234 100.455 4.2971 101.292 4.2971C101.863 4.2971 102.014 5.9788 102.014 12.3512V20.4053H106.288C110.966 20.4053 112.933 19.8732 114.857 18.0874C116.872 16.2177 117.802 13.9175 117.848 10.6915C117.882 8.27529 117.603 7.25672 116.418 5.47139C114.253 2.21054 112.406 1.46741 105.784 1.19411C102.673 1.06578 99.963 1.13183 99.7605 1.34016ZM113.972 13.962C115.387 11.3847 114.973 8.37678 112.921 6.33157C111.691 5.1052 110.714 4.70947 108.303 4.4614L105.245 4.14675V10.6915V17.1837L107.804 17.1756C111.058 17.166 112.677 16.3224 113.972 13.962Z" fill="#383838"/>
</g>
</svg>
