<svg width="50" height="48" viewBox="0 0 50 48" fill="none" xmlns="http://www.w3.org/2000/svg">
<g id="Group 2">
<ellipse id="Ellipse 3" cx="26.1843" cy="1.75003" rx="1.76287" ry="1.75" fill="#383838"/>
<ellipse id="Ellipse 25" cx="45.324" cy="32.7501" rx="1.76287" ry="1.75" fill="#383838"/>
<ellipse id="Ellipse 48" cx="6.54089" cy="34.25" rx="1.76287" ry="1.75" fill="#383838"/>
<ellipse id="Ellipse 4" cx="31.2211" cy="1.75003" rx="1.76287" ry="1.75" fill="#383838"/>
<ellipse id="Ellipse 26" cx="43.3094" cy="37.75" rx="1.76287" ry="1.75" fill="#383838"/>
<ellipse id="Ellipse 50" cx="4.02245" cy="29.75" rx="1.76287" ry="1.75" fill="#383838"/>
<ellipse id="Ellipse 5" cx="28.4509" cy="6.49996" rx="1.51103" ry="1.5" fill="#383838"/>
<ellipse id="Ellipse 27" cx="40.0354" cy="33" rx="1.51103" ry="1.5" fill="#383838"/>
<ellipse id="Ellipse 49" cx="8.80748" cy="29.5" rx="1.51103" ry="1.5" fill="#383838"/>
<ellipse id="Ellipse 6" cx="36.2579" cy="3.25012" rx="1.25919" ry="1.25" fill="#383838"/>
<ellipse id="Ellipse 65" cx="2.51145" cy="24.75" rx="1.25919" ry="1.25" fill="#383838"/>
<ellipse id="Ellipse 7" cx="33.2358" cy="7.25006" rx="1.25919" ry="1.25" fill="#383838"/>
<ellipse id="Ellipse 61" cx="7.54826" cy="25.2501" rx="1.25919" ry="1.25" fill="#383838"/>
<ellipse id="Ellipse 8" cx="40.2873" cy="5.25003" rx="1.25919" ry="1.25" fill="#383838"/>
<ellipse id="Ellipse 66" cx="2.00779" cy="19.75" rx="1.25919" ry="1.25" fill="#383838"/>
<ellipse id="Ellipse 28" cx="40.2873" cy="41.25" rx="1.25919" ry="1.25" fill="#383838"/>
<ellipse id="Ellipse 9" cx="37.5171" cy="9.50003" rx="1.00736" ry="1" fill="#383838"/>
<ellipse id="Ellipse 62" cx="6.79276" cy="20.5" rx="1.00736" ry="1" fill="#383838"/>
<ellipse id="Ellipse 30" cx="37.5171" cy="37" rx="1.00736" ry="1" fill="#383838"/>
<ellipse id="Ellipse 10" cx="31.4729" cy="11.5001" rx="1.00736" ry="1" fill="#383838"/>
<ellipse id="Ellipse 60" cx="11.8295" cy="24.5" rx="1.00736" ry="1" fill="#383838"/>
<ellipse id="Ellipse 29" cx="34.495" cy="33.5" rx="1.00736" ry="1" fill="#383838"/>
<ellipse id="Ellipse 11" cx="36.5097" cy="13.5" rx="1.00736" ry="1" fill="#383838"/>
<ellipse id="Ellipse 59" cx="11.3258" cy="19.5" rx="1.00736" ry="1" fill="#383838"/>
<ellipse id="Ellipse 45" cx="29.4583" cy="42" rx="1.00736" ry="1" fill="#383838"/>
<ellipse id="Ellipse 31" cx="30.9693" cy="37.5" rx="1.00736" ry="1" fill="#383838"/>
<ellipse id="Ellipse 24" cx="41.0428" cy="12.5" rx="1.00736" ry="1" fill="#383838"/>
<ellipse id="Ellipse 63" cx="8.3038" cy="16" rx="1.00736" ry="1" fill="#383838"/>
<ellipse id="Ellipse 47" cx="26.4362" cy="47.0001" rx="1.00736" ry="1" fill="#383838"/>
<ellipse id="Ellipse 32" cx="33.9913" cy="40" rx="1.00736" ry="1" fill="#383838"/>
<ellipse id="Ellipse 12" cx="44.0649" cy="8.99997" rx="1.00736" ry="1" fill="#383838"/>
<ellipse id="Ellipse 67" cx="3.26694" cy="15.0001" rx="1.00736" ry="1" fill="#383838"/>
<ellipse id="Ellipse 33" cx="36.0061" cy="44.0001" rx="1.00736" ry="1" fill="#383838"/>
<ellipse id="Ellipse 13" cx="41.7983" cy="30.25" rx="0.251839" ry="0.25" fill="#383838"/>
<ellipse id="Ellipse 51" cx="23.1623" cy="6.25006" rx="0.251839" ry="0.25" fill="#383838"/>
<ellipse id="Ellipse 37" cx="13.0887" cy="34.2501" rx="0.251839" ry="0.25" fill="#383838"/>
<ellipse id="Ellipse 14" cx="48.0943" cy="27.5" rx="0.503678" ry="0.5" fill="#383838"/>
<ellipse id="Ellipse 54" cx="20.8957" cy="11.0001" rx="0.503678" ry="0.5" fill="#383838"/>
<ellipse id="Ellipse 52" cx="22.4068" cy="1.50005" rx="0.503678" ry="0.5" fill="#383838"/>
<ellipse id="Ellipse 39" cx="15.859" cy="38.0001" rx="0.503678" ry="0.5" fill="#383838"/>
<ellipse id="Ellipse 15" cx="43.5612" cy="26.0001" rx="0.503678" ry="0.5" fill="#383838"/>
<ellipse id="Ellipse 53" cx="18.3773" cy="6.50006" rx="0.503678" ry="0.5" fill="#383838"/>
<ellipse id="Ellipse 38" cx="9.81483" cy="37.5001" rx="0.503678" ry="0.5" fill="#383838"/>
<ellipse id="Ellipse 16" cx="38.5244" cy="25.5" rx="0.503678" ry="0.5" fill="#383838"/>
<ellipse id="Ellipse 36" cx="18.3773" cy="34.0001" rx="0.503678" ry="0.5" fill="#383838"/>
<ellipse id="Ellipse 17" cx="39.2799" cy="21.2501" rx="0.755517" ry="0.75" fill="#383838"/>
<ellipse id="Ellipse 70" cx="16.6145" cy="12.7501" rx="0.755517" ry="0.75" fill="#383838"/>
<ellipse id="Ellipse 57" cx="14.096" cy="8.74997" rx="0.755517" ry="0.75" fill="#383838"/>
<ellipse id="Ellipse 42" cx="16.6145" cy="44.25" rx="0.755517" ry="0.75" fill="#383838"/>
<ellipse id="Ellipse 35" cx="22.1549" cy="36.2501" rx="0.755517" ry="0.75" fill="#383838"/>
<ellipse id="Ellipse 18" cx="44.3167" cy="21.2501" rx="0.755517" ry="0.75" fill="#383838"/>
<ellipse id="Ellipse 56" cx="13.0887" cy="3.75003" rx="0.755517" ry="0.75" fill="#383838"/>
<ellipse id="Ellipse 41" cx="19.6365" cy="40.25" rx="0.755517" ry="0.75" fill="#383838"/>
<ellipse id="Ellipse 19" cx="48.8498" cy="22.7501" rx="0.755517" ry="0.75" fill="#383838"/>
<ellipse id="Ellipse 55" cx="17.1181" cy="2.25001" rx="0.755517" ry="0.75" fill="#383838"/>
<ellipse id="Ellipse 40" cx="13.0887" cy="41.75" rx="0.755517" ry="0.75" fill="#383838"/>
<ellipse id="Ellipse 20" cx="48.598" cy="17.5" rx="1.00736" ry="1" fill="#383838"/>
<ellipse id="Ellipse 43" cx="24.4214" cy="41.5" rx="1.00736" ry="1" fill="#383838"/>
<ellipse id="Ellipse 21" cx="43.5612" cy="16.5001" rx="1.00736" ry="1" fill="#383838"/>
<ellipse id="Ellipse 64" cx="10.3185" cy="12.0001" rx="1.00736" ry="1" fill="#383838"/>
<ellipse id="Ellipse 44" cx="21.3994" cy="46" rx="1.00736" ry="1" fill="#383838"/>
<ellipse id="Ellipse 22" cx="47.0869" cy="13.0001" rx="1.00736" ry="1" fill="#383838"/>
<ellipse id="Ellipse 69" cx="8.80747" cy="7.00006" rx="1.00736" ry="1" fill="#383838"/>
<ellipse id="Ellipse 68" cx="5.28165" cy="10.5" rx="1.00736" ry="1" fill="#383838"/>
<ellipse id="Ellipse 46" cx="31.4729" cy="46.5" rx="1.00736" ry="1" fill="#383838"/>
<ellipse id="Ellipse 23" cx="38.5244" cy="17.0001" rx="1.00736" ry="1" fill="#383838"/>
<ellipse id="Ellipse 58" cx="13.3405" cy="16" rx="1.00736" ry="1" fill="#383838"/>
<ellipse id="Ellipse 34" cx="26.4362" cy="37" rx="1.00736" ry="1" fill="#383838"/>
</g>
</svg>
